<?xml version="1.0" encoding="UTF-8"?><svg id="complete" xmlns="http://www.w3.org/2000/svg" viewBox="0 0 897.82 230.45"><defs><style>.cls-1{fill:#ffd37b;}.cls-2{fill:#e6853f;}.cls-3{fill:#48af5b;}</style></defs><g><path class="cls-3" d="m812.12,197.3c-7.22,29.71-35.65,33.15-53.48,33.15h0c-18.07,0-50.22-.36-59.4-47.16h31.25s1.68,23.5,7.24,31.08c5.39,7.33,31.09,13.06,39.16-4.34,8.06-17.4-18.63-39.85-51.76-55.49-33.2-15.67-34.38-75.99,22.47-74.74,56.87,1.23,61.66,41.32,61.66,41.32h-30.26s-1.66-11.9-5.82-19.51c-3.1-5.68-17.04-15.11-27.7-11.25-17.02,6.17-15.26,22.74,9.76,39.16,25.04,16.42,64.09,38.06,56.87,67.77Z"/><path class="cls-3" d="m897.82,82.26v119.15c0,16.04-13,29.04-29.04,29.04h-12.55v-118.21c.96-17.94,7.19-29.98,41.57-29.98h.02Z"/><path class="cls-3" d="m653.76,82.26v119.15c0,16.04-13,29.04-29.04,29.04h-12.55v-117.27c.78-18.45,6.63-30.92,41.59-30.92Z"/><path class="cls-3" d="m524.91,81.64h-31.92s-10.41.47-20.82,8.22c-7.86,5.87-15.75,15.93-19.1,33.1h39.92c.02-16.98,1.05-32.52,15.97-32.52,14.12,0,15.79,13.92,15.95,29.8.04,3.4,0,6.9,0,10.36v3.37h-31.92s-.09,0-.27.02c-3.55.31-41.35,4.38-41.35,36.59v17.49c0,27.94,11.66,42.37,41.61,42.37h31.92c29.95,0,41.62-14.43,41.62-42.37v-70.23c0-34.31-41.62-36.21-41.62-36.21Zm0,110.66c-.16,13.97-1.83,26.21-15.95,26.21-15.06,0-15.97-13.93-15.97-29.02v-13.26c0-15.11.92-29.04,15.97-29.04,14.12,0,15.79,12.24,15.95,26.23.04,2.99,0,6.05,0,9.1v.67c0,3.05.04,6.13,0,9.12Z"/><path class="cls-3" d="m364.79,40.73v42.8h-32.9c-6.34,0-41.62,4.89-41.62,55.55v44.25c3.69,42.78,35.29,47.11,41.26,47.11h33.26c6.34,0,41.59-4.89,41.59-55.55V0s-38.8,17.17-41.59,40.73Zm-.16,126.52c0,24.55-.96,47.18-16.4,47.18-14.45,0-16.19-19.89-16.35-42.59-.04-4.9,0-9.94,0-14.93v-1.08c0-5-.04-10.03,0-14.93.16-22.7,1.9-42.59,16.35-42.59,15.44,0,16.4,22.63,16.4,47.18v21.78Z"/></g><g><path class="cls-1" d="m115.22,0h0C51.85,0,0,51.85,0,115.22h0c0,63.37,51.85,115.22,115.22,115.22h0c63.37,0,115.22-51.85,115.22-115.22h0C230.45,51.85,178.6,0,115.22,0Zm65.26,115.24c0,35.88-29.36,65.24-65.24,65.24h-.02c-35.89,0-65.26-29.37-65.26-65.26h0c0-35.88,29.36-65.24,65.24-65.24h.04c35.88,0,65.24,29.36,65.24,65.24v.02Z"/><rect class="cls-2" x="76.43" y="76.43" width="77.58" height="77.58" rx="38.79" ry="38.79"/><path class="cls-3" d="m205.43,59.84h-4.9s-.27,0-.27,0h-4.65s-29.28,0-29.28,0c-1.79,0-2.74-2.08-1.59-3.45,2.79-3.33,5.86-9.69,5.86-21.56v-9.82c0-2.84.5-5.57,1.38-8.11C175.37,7.09,184.71,0,195.62,0h9.82c13.75.01,25.01,11.26,25.01,25.02v9.82c-.01,13.75-11.26,25.01-25.02,25.01Z"/></g></svg>